<svg xmlns="http://www.w3.org/2000/svg" viewBox="0 0 512 512">
    <defs>
        <linearGradient id="techGradient" x1="0%" y1="0%" x2="100%" y2="100%">
            <stop offset="0%" style="stop-color:#00afff;stop-opacity:1" />
            <stop offset="100%" style="stop-color:#ff3bc6;stop-opacity:1" />
        </linearGradient>
    </defs>
    
    <!-- Grey Border -->
    <rect width="512" height="512" rx="64" ry="64" fill="#808080"/>
    
    <!-- Background with gradient -->
    <rect x="8" y="8" width="496" height="496" rx="56" ry="56" fill="url(#techGradient)"/>
    
    <!-- Document shape -->
    <path d="M156 196 C156 172 176 152 200 152 L312 152 C336 152 356 172 356 196 L356 316 C356 340 336 360 312 360 L200 360 C176 360 156 340 156 316 Z" fill="white" stroke="#000" stroke-width="16"/>
    
    <!-- Text lines -->
    <path d="M196 216 L316 216" stroke="#000" stroke-width="12"/>
    <path d="M196 256 L316 256" stroke="#000" stroke-width="12"/>
    <path d="M196 296 L256 296" stroke="#000" stroke-width="12"/>
    
    <!-- Extraction ray -->
    <path d="M376 240 L456 240 L456 160 Z" fill="#FF5722" stroke="#000" stroke-width="16"/>
</svg>
